<svg width="20" height="20" viewBox="0 0 20 20" fill="none" xmlns="http://www.w3.org/2000/svg">
<path fill-rule="evenodd" clip-rule="evenodd" d="M1.87507 6.90023C1.89943 4.52365 3.78745 2.5 6.2141 2.5C7.70359 2.5 8.79922 3.23729 9.4984 3.93148C9.69308 4.12477 9.86015 4.31757 10 4.49534C10.1399 4.31757 10.307 4.12477 10.5017 3.93148C11.2009 3.23729 12.2965 2.5 13.786 2.5C16.2126 2.5 18.1006 4.52365 18.125 6.90023L18.125 6.90041C18.1712 11.5356 14.4468 14.7424 10.7032 17.2835C10.4958 17.4246 10.2508 17.5 10 17.5C9.74925 17.5 9.50426 17.4246 9.29691 17.2835C5.5529 14.7424 1.82843 11.5356 1.87507 6.90035L1.87507 6.90023ZM10.5583 5.90604C10.4521 6.1169 10.2362 6.25 10 6.25C9.76389 6.25 9.54796 6.11691 9.4418 5.90607C9.44167 5.90581 9.44142 5.90532 9.44104 5.90458C9.44027 5.9031 9.43901 5.90067 9.43725 5.89733C9.43631 5.89556 9.43524 5.89353 9.43402 5.89125C9.42699 5.87808 9.41531 5.85664 9.39896 5.82808C9.36622 5.7709 9.3151 5.68573 9.24564 5.58192C9.10604 5.37327 8.89626 5.09511 8.61769 4.81852C8.05788 4.26271 7.26055 3.75 6.2141 3.75C4.51891 3.75 3.14289 5.17472 3.125 6.91293M10.5583 5.90604C10.5584 5.90578 10.5587 5.90529 10.559 5.90458C10.5602 5.90232 10.5625 5.89782 10.5661 5.89125C10.5731 5.87808 10.5848 5.85664 10.6011 5.82808C10.6338 5.7709 10.685 5.68573 10.7544 5.58192C10.894 5.37327 11.1038 5.09511 11.3824 4.81852C11.9422 4.26271 12.7395 3.75 13.786 3.75C15.4811 3.75 16.8572 5.17469 16.8751 6.91287C16.914 10.8188 13.7771 13.6862 10.0006 16.2497L10 16.25L9.99946 16.2497C6.22261 13.6863 3.08577 10.8189 3.125 6.91305" fill="#21272A"/>
</svg>
