<svg width="20" height="20" viewBox="0 0 20 20" fill="none" xmlns="http://www.w3.org/2000/svg">
<path fill-rule="evenodd" clip-rule="evenodd" d="M2.5 6.25C2.5 5.90482 2.77982 5.625 3.125 5.625H16.875C17.2202 5.625 17.5 5.90482 17.5 6.25C17.5 6.59518 17.2202 6.875 16.875 6.875H3.125C2.77982 6.875 2.5 6.59518 2.5 6.25Z" fill="#21272A"/>
<path fill-rule="evenodd" clip-rule="evenodd" d="M2.5 10C2.5 9.65482 2.77982 9.375 3.125 9.375H16.875C17.2202 9.375 17.5 9.65482 17.5 10C17.5 10.3452 17.2202 10.625 16.875 10.625H3.125C2.77982 10.625 2.5 10.3452 2.5 10Z" fill="#21272A"/>
<path fill-rule="evenodd" clip-rule="evenodd" d="M2.5 13.75C2.5 13.4048 2.77982 13.125 3.125 13.125H16.875C17.2202 13.125 17.5 13.4048 17.5 13.75C17.5 14.0952 17.2202 14.375 16.875 14.375H3.125C2.77982 14.375 2.5 14.0952 2.5 13.75Z" fill="#21272A"/>
</svg>
