<svg width="20" height="20" viewBox="0 0 20 20" fill="none" xmlns="http://www.w3.org/2000/svg">
<path fill-rule="evenodd" clip-rule="evenodd" d="M15 10C15 10.1658 14.9342 10.3247 14.817 10.4419C14.6997 10.5591 14.5408 10.625 14.375 10.625H7.13377L9.81752 13.3075C9.87563 13.3656 9.92172 13.4346 9.95317 13.5105C9.98462 13.5864 10.0008 13.6678 10.0008 13.75C10.0008 13.8322 9.98462 13.9136 9.95317 13.9895C9.92172 14.0654 9.87563 14.1344 9.81752 14.1925C9.75941 14.2506 9.69042 14.2967 9.6145 14.3282C9.53857 14.3596 9.4572 14.3758 9.37502 14.3758C9.29284 14.3758 9.21146 14.3596 9.13554 14.3282C9.05961 14.2967 8.99063 14.2506 8.93252 14.1925L5.18252 10.4425C5.12431 10.3844 5.07814 10.3155 5.04663 10.2395C5.01512 10.1636 4.9989 10.0822 4.9989 10C4.9989 9.91779 5.01512 9.83639 5.04663 9.76045C5.07814 9.68452 5.12431 9.61555 5.18252 9.5575L8.93252 5.8075C9.04988 5.69014 9.20905 5.62421 9.37502 5.62421C9.54099 5.62421 9.70016 5.69014 9.81752 5.8075C9.93488 5.92485 10.0008 6.08403 10.0008 6.25C10.0008 6.41597 9.93488 6.57514 9.81752 6.6925L7.13377 9.375H14.375C14.5408 9.375 14.6997 9.44084 14.817 9.55805C14.9342 9.67526 15 9.83424 15 10Z" fill="#21272A"/>
</svg>
