<svg width="20" height="20" viewBox="0 0 20 20" fill="none" xmlns="http://www.w3.org/2000/svg">
<circle cx="10" cy="10" r="10" fill="black"/>
<rect x="5" y="4.63684" width="10.3125" height="10.3125" fill="white"/>
<path d="M3.71042 3.44689C3.91856 3.43437 4.12727 3.43437 4.33542 3.44689H16.1135C16.1739 3.4389 16.2353 3.44455 16.2932 3.46349C16.3511 3.48242 16.4039 3.51413 16.4479 3.55626C16.6042 3.71564 16.5479 3.95315 16.5573 4.15315C16.5573 8.16148 16.5573 12.1719 16.5573 16.1844C16.556 16.2394 16.5432 16.2936 16.5195 16.3433C16.4959 16.393 16.462 16.4371 16.4201 16.4728C16.3782 16.5085 16.3292 16.535 16.2764 16.5505C16.2236 16.5659 16.1681 16.57 16.1135 16.5625H3.81979C3.76941 16.5647 3.71912 16.5564 3.67208 16.5382C3.62504 16.5201 3.58228 16.4923 3.54647 16.4568C3.51066 16.4213 3.48259 16.3788 3.46402 16.3319C3.44544 16.285 3.43677 16.2348 3.43854 16.1844V3.82813C3.43209 3.74282 3.45576 3.65793 3.50544 3.58827C3.55512 3.5186 3.62765 3.46859 3.71042 3.44689ZM6.40104 6.70937C6.40104 8.89687 6.40104 11.0844 6.40104 13.2719H8.86354C8.86354 12.1875 8.84792 11.0844 8.86354 10.0156C9.13229 10.3906 9.37917 10.7844 9.65417 11.1562C10.1135 11.8687 10.6323 12.5406 11.0729 13.2656C11.8979 13.2875 12.7229 13.2656 13.551 13.2656C13.551 13.1625 13.5667 13.0594 13.5667 12.9531C13.5667 10.8656 13.5667 8.77499 13.5667 6.70312C12.7479 6.70312 11.9323 6.70312 11.1167 6.70312C11.1167 7.79374 11.1167 8.89061 11.1167 9.97499C10.3573 8.89686 9.64167 7.78751 8.86354 6.71876C8.04479 6.68438 7.21354 6.70937 6.40104 6.70937Z" fill="black"/>
<path d="M5.01453 4.0625H14.9883C15.24 4.0625 15.4815 4.16251 15.6595 4.34052C15.8375 4.51853 15.9375 4.75996 15.9375 5.01171V14.9855C15.9375 15.1105 15.9129 15.2343 15.865 15.3498C15.8172 15.4653 15.7471 15.5703 15.6587 15.6587C15.5703 15.7471 15.4653 15.8172 15.3498 15.865C15.2343 15.9129 15.1105 15.9375 14.9855 15.9375H5.01453C4.88951 15.9375 4.76571 15.9129 4.6502 15.865C4.5347 15.8172 4.42975 15.7471 4.34134 15.6587C4.25294 15.5703 4.18281 15.4653 4.13497 15.3498C4.08712 15.2343 4.0625 15.1105 4.0625 14.9855V5.01171C4.06325 4.7597 4.16388 4.51828 4.34234 4.34035C4.5208 4.16242 4.76252 4.0625 5.01453 4.0625Z" fill="black"/>
<path d="M10.0289 4.82629C6.91773 4.82629 4.40869 6.8335 4.40869 9.27028C4.40869 10.852 5.45245 12.237 7.01809 13.0278L6.48818 15.007C6.47819 15.0366 6.47666 15.0685 6.48375 15.0989C6.49084 15.1294 6.50627 15.1574 6.52833 15.1796C6.56049 15.2079 6.60187 15.2236 6.64475 15.2237C6.6803 15.2209 6.71403 15.2068 6.74109 15.1836L9.02131 13.6461C9.3579 13.6925 9.69719 13.7166 10.037 13.7183C13.1442 13.7183 15.6572 11.7111 15.6572 9.27028C15.6572 6.82949 13.1361 4.82629 10.0289 4.82629Z" fill="white"/>
<path d="M6.37553 8.56774H5.76131C5.68518 8.56995 5.61 8.55045 5.54453 8.51153C5.51547 8.49332 5.49048 8.46929 5.47113 8.44096C5.45179 8.41264 5.43851 8.38062 5.43213 8.34692C5.43018 8.32556 5.43018 8.30409 5.43213 8.28273C5.43022 8.24275 5.43798 8.20288 5.45475 8.16654C5.47152 8.1302 5.49681 8.09845 5.52847 8.07397C5.59846 8.02328 5.68293 7.9965 5.76934 7.99767H7.62001C7.69674 7.99497 7.77244 8.01601 7.83679 8.05789C7.86654 8.0753 7.89206 8.09911 7.91149 8.12758C7.93093 8.15604 7.94381 8.18846 7.94919 8.2225C7.95115 8.24252 7.95115 8.2627 7.94919 8.28273C7.95109 8.32328 7.94334 8.3637 7.9266 8.40068C7.90985 8.43767 7.88458 8.47013 7.85285 8.49546C7.78456 8.54608 7.70091 8.57163 7.61599 8.56774H7.02185V10.6794C7.02427 10.7243 7.0173 10.7693 7.00141 10.8115C6.98552 10.8536 6.96103 10.892 6.92952 10.9242C6.8993 10.955 6.86297 10.9791 6.82287 10.995C6.78277 11.0109 6.73979 11.0183 6.69668 11.0166C6.62129 11.0187 6.54749 10.9946 6.48793 10.9483C6.43122 10.9031 6.39274 10.839 6.37954 10.7677C6.37557 10.7384 6.37557 10.7087 6.37954 10.6794L6.37553 8.56774Z" fill="black"/>
<path d="M8.12647 8.15426C8.14413 8.0882 8.18559 8.03099 8.24289 7.99367C8.30394 7.95907 8.37351 7.94237 8.44361 7.9455H8.59616C8.67055 7.94283 8.74422 7.9609 8.80893 7.99769C8.8775 8.0438 8.92623 8.11402 8.94542 8.19439L9.74831 10.4626C9.76913 10.5218 9.78655 10.5821 9.8005 10.6433C9.80188 10.6687 9.80188 10.6941 9.8005 10.7195C9.80186 10.7586 9.79466 10.7976 9.77941 10.8336C9.76415 10.8697 9.74121 10.902 9.71218 10.9283C9.68406 10.9571 9.65029 10.9798 9.61299 10.995C9.5757 11.0102 9.53567 11.0175 9.4954 11.0166C9.43348 11.0227 9.3713 11.0079 9.31886 10.9744C9.26643 10.9409 9.2268 10.8907 9.20636 10.8319L9.03775 10.3382H7.98195L7.81334 10.8319C7.7934 10.8919 7.75329 10.943 7.69985 10.9767C7.64642 11.0104 7.58296 11.0244 7.52029 11.0166C7.4524 11.0184 7.38591 10.9971 7.33161 10.9563C7.2787 10.9143 7.243 10.8543 7.23124 10.7878C7.22911 10.7651 7.22911 10.7422 7.23124 10.7195C7.22435 10.6797 7.22435 10.639 7.23124 10.5991C7.23124 10.5549 7.25935 10.5067 7.2754 10.4626L8.12647 8.15426ZM8.52792 8.68018L8.14654 9.88452H8.90527L8.52792 8.68018Z" fill="black"/>
<path d="M9.89244 8.28278C9.88836 8.19268 9.92011 8.10465 9.98075 8.0379C10.0116 8.0068 10.0486 7.9825 10.0894 7.9666C10.1302 7.95069 10.1739 7.9435 10.2176 7.94552C10.2928 7.94465 10.3662 7.96866 10.4264 8.01379C10.4821 8.06088 10.5192 8.12638 10.5307 8.19844C10.5347 8.2264 10.5347 8.25481 10.5307 8.28278V10.3944H11.6347C11.7112 10.3934 11.7865 10.4142 11.8515 10.4546C11.8807 10.4726 11.9058 10.4966 11.9252 10.5249C11.9446 10.5533 11.9578 10.5854 11.9639 10.6192C11.9639 10.6192 11.9639 10.6593 11.9639 10.6794C11.9658 10.7194 11.958 10.7592 11.9413 10.7955C11.9245 10.8319 11.8992 10.8637 11.8676 10.8882C11.7976 10.9388 11.7131 10.9656 11.6267 10.9644H10.2698C10.1834 10.97 10.0975 10.9475 10.0249 10.9002C9.96001 10.8517 9.91676 10.7796 9.90448 10.6995C9.90154 10.6554 9.90154 10.6111 9.90448 10.567L9.89244 8.28278Z" fill="black"/>
<path d="M12.0362 8.28279C12.0338 8.19297 12.0653 8.10554 12.1245 8.03792C12.1847 7.98325 12.2619 7.95096 12.3431 7.94657C12.4242 7.94219 12.5044 7.96594 12.5701 8.01381C12.6271 8.06048 12.6656 8.12596 12.6785 8.19846C12.6805 8.22652 12.6805 8.25473 12.6785 8.28279V9.26632L13.6942 8.09408C13.7333 8.05409 13.7749 8.01658 13.8186 7.98171C13.8599 7.95716 13.9072 7.94461 13.9551 7.94554C14.0253 7.94516 14.0939 7.96618 14.1518 8.00577C14.1791 8.02415 14.2024 8.04787 14.2204 8.07546C14.2383 8.10305 14.2505 8.13395 14.2562 8.16636C14.2578 8.17431 14.2578 8.18252 14.2562 8.19047C14.2543 8.19974 14.2543 8.20928 14.2562 8.21855C14.2561 8.26079 14.245 8.3023 14.2241 8.339C14.2028 8.37787 14.1772 8.41418 14.1478 8.44735L13.4814 9.17801L14.2843 10.4225V10.4626C14.326 10.5201 14.3585 10.5838 14.3807 10.6513V10.6714C14.3853 10.7179 14.3786 10.7649 14.3611 10.8082C14.3436 10.8516 14.3159 10.89 14.2803 10.9203C14.2133 10.9709 14.1314 10.9978 14.0475 10.9966C13.9917 10.9989 13.9363 10.9864 13.8869 10.9604C13.8334 10.9246 13.7894 10.8764 13.7584 10.8199L13.0117 9.61558L12.6544 9.98894V10.6593C12.6568 10.7492 12.6253 10.8366 12.5661 10.9042C12.5344 10.9352 12.4967 10.9594 12.4552 10.9753C12.4138 10.9912 12.3696 10.9984 12.3253 10.9966C12.2512 10.9981 12.1789 10.974 12.1205 10.9283C12.0638 10.8831 12.0253 10.819 12.0121 10.7477C12.0082 10.7184 12.0082 10.6886 12.0121 10.6593L12.0362 8.28279Z" fill="black"/>
</svg>
