<svg width="20" height="20" viewBox="0 0 20 20" fill="none" xmlns="http://www.w3.org/2000/svg">
<path d="M0 1.875C0 1.70924 0.065848 1.55027 0.183058 1.43306C0.300269 1.31585 0.45924 1.25 0.625 1.25H2.5C2.63941 1.25004 2.77481 1.29669 2.88466 1.38253C2.99452 1.46837 3.07251 1.58848 3.10625 1.72375L3.6125 3.75H18.125C18.2199 3.75003 18.3136 3.77168 18.3989 3.81332C18.4843 3.85495 18.559 3.91548 18.6174 3.9903C18.6758 4.06512 18.7165 4.15227 18.7362 4.24513C18.7559 4.338 18.7542 4.43414 18.7312 4.52625L16.8562 12.0263C16.8225 12.1615 16.7445 12.2816 16.6347 12.3675C16.5248 12.4533 16.3894 12.5 16.25 12.5H5C4.86059 12.5 4.72519 12.4533 4.61534 12.3675C4.50548 12.2816 4.42749 12.1615 4.39375 12.0263L2.0125 2.5H0.625C0.45924 2.5 0.300269 2.43415 0.183058 2.31694C0.065848 2.19973 0 2.04076 0 1.875ZM3.925 5L5.4875 11.25H15.7625L17.325 5H3.925ZM6.25 15C5.91848 15 5.60054 15.1317 5.36612 15.3661C5.1317 15.6005 5 15.9185 5 16.25C5 16.5815 5.1317 16.8995 5.36612 17.1339C5.60054 17.3683 5.91848 17.5 6.25 17.5C6.58152 17.5 6.89946 17.3683 7.13388 17.1339C7.3683 16.8995 7.5 16.5815 7.5 16.25C7.5 15.9185 7.3683 15.6005 7.13388 15.3661C6.89946 15.1317 6.58152 15 6.25 15ZM3.75 16.25C3.75 15.587 4.01339 14.9511 4.48223 14.4822C4.95107 14.0134 5.58696 13.75 6.25 13.75C6.91304 13.75 7.54893 14.0134 8.01777 14.4822C8.48661 14.9511 8.75 15.587 8.75 16.25C8.75 16.913 8.48661 17.5489 8.01777 18.0178C7.54893 18.4866 6.91304 18.75 6.25 18.75C5.58696 18.75 4.95107 18.4866 4.48223 18.0178C4.01339 17.5489 3.75 16.913 3.75 16.25ZM15 15C14.6685 15 14.3505 15.1317 14.1161 15.3661C13.8817 15.6005 13.75 15.9185 13.75 16.25C13.75 16.5815 13.8817 16.8995 14.1161 17.1339C14.3505 17.3683 14.6685 17.5 15 17.5C15.3315 17.5 15.6495 17.3683 15.8839 17.1339C16.1183 16.8995 16.25 16.5815 16.25 16.25C16.25 15.9185 16.1183 15.6005 15.8839 15.3661C15.6495 15.1317 15.3315 15 15 15ZM12.5 16.25C12.5 15.587 12.7634 14.9511 13.2322 14.4822C13.7011 14.0134 14.337 13.75 15 13.75C15.663 13.75 16.2989 14.0134 16.7678 14.4822C17.2366 14.9511 17.5 15.587 17.5 16.25C17.5 16.913 17.2366 17.5489 16.7678 18.0178C16.2989 18.4866 15.663 18.75 15 18.75C14.337 18.75 13.7011 18.4866 13.2322 18.0178C12.7634 17.5489 12.5 16.913 12.5 16.25Z" fill="#21272A"/>
</svg>
